<?xml version="1.0" standalone="no"?>
<!DOCTYPE svg PUBLIC "-//W3C//DTD SVG 20010904//EN"
 "http://www.w3.org/TR/2001/REC-SVG-20010904/DTD/svg10.dtd">
<svg version="1.0" xmlns="http://www.w3.org/2000/svg"
 width="300.000000pt" height="300.000000pt" viewBox="0 0 300.000000 300.000000"
 preserveAspectRatio="xMidYMid meet">
<metadata>
Created by potrace 1.11, written by Peter Selinger 2001-2013
</metadata>
<g transform="translate(0.000000,300.000000) scale(0.100000,-0.100000)"
fill="#000000" stroke="none">
<path d="M60 1740 l0 -720 59 0 60 0 3 -88 c4 -127 3 -133 -35 -131 -18 1 -44
1 -59 0 l-28 -1 0 -135 0 -135 1440 0 1440 0 0 135 c0 153 10 137 -90 137
l-45 1 0 108 0 109 68 0 67 0 0 720 0 720 -1440 0 -1440 0 0 -720z m1082 -797
c2 -43 2 -92 0 -110 l-3 -31 -107 0 c-59 0 -116 1 -127 3 -21 4 -21 12 -16
183 l1 32 124 0 124 0 4 -77z m958 -32 l0 -109 -127 2 -127 1 -1 100 c0 55 1
103 3 108 2 4 59 7 128 7 l124 0 0 -109z"/>
</g>
</svg>
