<?xml version="1.0" standalone="no"?>
<!DOCTYPE svg PUBLIC "-//W3C//DTD SVG 20010904//EN"
 "http://www.w3.org/TR/2001/REC-SVG-20010904/DTD/svg10.dtd">
<svg version="1.0" xmlns="http://www.w3.org/2000/svg"
 width="260.000000pt" height="260.000000pt" viewBox="0 0 260.000000 260.000000"
 preserveAspectRatio="xMidYMid meet">
<metadata>
Created by potrace 1.11, written by Peter Selinger 2001-2013
</metadata>
<g transform="translate(0.000000,260.000000) scale(0.100000,-0.100000)"
fill="#000000" stroke="none">
<path d="M400 1300 l0 -1300 128 0 129 0 -2 50 c-2 57 -14 52 120 52 l80 1 3
-52 3 -51 675 0 674 0 0 1300 0 1300 -675 0 -675 0 0 -50 0 -50 -103 0 -103 0
2 50 2 50 -129 0 -129 0 0 -1300z m460 439 l0 -117 -87 0 c-49 0 -95 2 -103 4
-13 3 -16 22 -15 107 0 56 3 107 7 112 4 6 48 10 102 10 l96 0 0 -116z m0
-874 c0 -63 -3 -115 -7 -116 -75 -5 -186 -2 -191 6 -4 5 -7 58 -7 117 l0 108
103 0 102 0 0 -115z"/>
</g>
</svg>
