<?xml version="1.0" encoding="utf-8"?>
<!-- Generator: Adobe Illustrator 17.0.0, SVG Export Plug-In . SVG Version: 6.00 Build 0)  -->
<!DOCTYPE svg PUBLIC "-//W3C//DTD SVG 1.1//EN" "http://www.w3.org/Graphics/SVG/1.1/DTD/svg11.dtd">
<svg version="1.1" id="Layer_1" xmlns="http://www.w3.org/2000/svg" xmlns:xlink="http://www.w3.org/1999/xlink" x="0px" y="0px"
	 width="347.223px" height="236.016px" viewBox="0 0 347.223 236.016" enable-background="new 0 0 347.223 236.016"
	 xml:space="preserve">
<g>
	<rect x="280.54" y="135.992" fill="#29A0E2" width="3.335" height="2.92"/>
	<rect x="305.665" y="135.992" fill="#29A0E2" width="3.335" height="2.92"/>
	<rect x="293.103" y="135.992" fill="#29A0E2" width="3.335" height="2.92"/>
	<rect x="318.228" y="135.992" fill="#29A0E2" width="3.335" height="2.92"/>
	<rect x="242.852" y="135.992" fill="#29A0E2" width="3.335" height="2.92"/>
	<rect x="230.289" y="135.992" fill="#29A0E2" width="3.335" height="2.92"/>
	<rect x="267.977" y="135.992" fill="#29A0E2" width="3.335" height="2.92"/>
	<rect x="255.415" y="135.992" fill="#29A0E2" width="3.335" height="2.92"/>
	<path fill="#29A0E2" d="M231.54,95.437v-4.718c0-5.027-1.625-6.574-5.491-6.574h-3.79v16.628h4.872
		C229.992,100.773,231.54,99.458,231.54,95.437z"/>
	<path fill="#29A0E2" d="M188,76.411c2.707,0,4.795-1.392,4.795-5.723v-3.016c0-4.872-2.088-6.187-4.795-6.187
		c-2.707,0-4.795,1.315-4.795,6.187v3.016C183.205,75.019,185.216,76.411,188,76.411z"/>
	<path fill="#29A0E2" d="M230.689,70.688v-3.016c0-3.867-1.315-5.568-4.331-5.568h-4.1v14.308h3.326
		C228.755,76.411,230.689,75.019,230.689,70.688z"/>
	<path fill="#29A0E2" d="M188,101.392c2.707,0,4.718-1.315,4.795-6.11v-5.027c0-4.254-1.779-6.11-4.795-6.11
		s-4.795,1.856-4.795,6.11v5.027C183.205,100.077,185.293,101.392,188,101.392z"/>
	<path fill="#29A0E2" d="M347.223,175.965V0H0.98v175.965h14.713v26.801H0.98v33.25h346.243v-33.25h-16.237v-26.801H347.223z
		 M298.484,67.362c0-8.662,4.331-13.612,12.684-13.612c8.353,0,12.684,4.95,12.684,13.612v5.259h-8.044v-5.8
		c0-3.867-1.701-5.337-4.408-5.337c-2.707,0-4.408,1.47-4.408,5.337v29.234c0,3.867,1.701,5.259,4.408,5.259
		c2.707,0,4.408-1.392,4.408-5.259v-9.977h-3.867v-7.734h11.91v17.169c0,8.663-4.331,13.612-12.684,13.612
		c-8.353,0-12.684-4.95-12.684-13.612V67.362z M269.005,67.362c0-8.662,4.563-13.612,12.916-13.612
		c8.352,0,12.916,4.95,12.916,13.612v28.152c0,8.663-4.564,13.612-12.916,13.612c-8.353,0-12.916-4.95-12.916-13.612V67.362z
		 M243.833,54.369h8.507v46.404h13.999v7.734h-22.506V54.369z M213.751,54.369h12.839c8.816,0,12.605,4.099,12.605,12.452v1.933
		c0,5.569-1.701,9.126-5.49,10.905c4.563,1.779,6.341,5.878,6.341,11.601v4.408c0,8.353-4.408,12.839-12.916,12.839h-13.379V54.369z
		 M174.697,91.26c0-5.182,1.547-9.204,5.259-11.292c-3.557-1.933-5.259-5.568-5.259-10.905v-1.702
		c0-8.662,4.718-13.612,13.303-13.612c8.584,0,13.302,4.95,13.302,13.612v1.702c0,5.337-1.779,8.972-5.258,10.905
		c3.712,2.088,5.258,6.11,5.258,11.292v4.253c0,8.663-4.718,13.612-13.302,13.612c-8.585,0-13.303-4.95-13.303-13.612V91.26z
		 M135.8,54.369h12.839c8.816,0,12.605,4.099,12.605,12.452v4.253c0,5.569-1.779,9.204-5.568,10.982
		c4.253,1.779,5.645,5.878,5.645,11.524v8.353c0,2.63,0.077,4.563,0.928,6.574h-8.661c-0.464-1.392-0.774-2.243-0.774-6.651v-8.507
		c0-5.027-1.701-6.883-5.569-6.883h-2.939v22.042H135.8V54.369z M108.742,54.369h23.201v7.734h-14.694v15.081h11.679v7.734h-11.679
		v15.855h14.694v7.734h-23.201V54.369z M80.268,54.369h12.529c8.507,0,12.684,4.718,12.684,13.38v7.038
		c0,8.662-4.177,13.38-12.684,13.38h-4.022v20.341h-8.507V54.369z M50.564,54.369h8.507v41.763c0,3.867,1.702,5.259,4.409,5.259
		c2.707,0,4.408-1.392,4.408-5.259V54.369h8.044v41.222c0,8.662-4.332,13.612-12.684,13.612c-8.353,0-12.684-4.95-12.684-13.612
		V54.369z M21.687,92.188h8.044v3.867c0,3.867,1.701,5.259,4.408,5.259c2.707,0,4.408-1.392,4.408-5.259
		c0-11.137-16.628-13.225-16.628-28.693c0-8.662,4.253-13.612,12.529-13.612s12.529,4.95,12.529,13.612v1.702h-8.044v-2.243
		c0-3.867-1.546-5.337-4.253-5.337c-2.707,0-4.253,1.47-4.253,5.337c0,11.137,16.628,13.225,16.628,28.693
		c0,8.663-4.331,13.612-12.684,13.612c-8.352,0-12.684-4.95-12.684-13.612V92.188z M130.993,202.766h-0.003h-30.61v-26.801h30.613
		V202.766z M246.299,202.766h-30.613v-26.801h30.613V202.766z M326.516,142.533H21.687v-25.714h304.829V142.533z"/>
	<path fill="#29A0E2" d="M152.737,73.008v-5.337c0-3.867-1.315-5.568-4.331-5.568h-4.1v16.628h3.326
		C150.804,78.731,152.737,77.339,152.737,73.008z"/>
	<path fill="#29A0E2" d="M96.973,75.328v-8.121c0-3.867-1.469-5.104-4.176-5.104h-4.022v18.329h4.022
		C95.504,80.433,96.973,79.195,96.973,75.328z"/>
	<rect x="217.727" y="135.992" fill="#29A0E2" width="3.335" height="2.92"/>
	<path fill="#29A0E2" d="M281.921,101.392c2.707,0,4.408-1.47,4.408-5.337V66.821c0-3.867-1.701-5.337-4.408-5.337
		c-2.707,0-4.408,1.47-4.408,5.337v29.234C277.513,99.922,279.214,101.392,281.921,101.392z"/>
	<rect x="92.101" y="135.992" fill="#29A0E2" width="3.335" height="2.92"/>
	<rect x="104.663" y="135.992" fill="#29A0E2" width="3.335" height="2.92"/>
	<rect x="117.226" y="135.992" fill="#29A0E2" width="3.335" height="2.92"/>
	<rect x="29.288" y="135.992" fill="#29A0E2" width="3.335" height="2.92"/>
	<rect x="41.85" y="135.992" fill="#29A0E2" width="3.335" height="2.92"/>
	<rect x="66.976" y="135.992" fill="#29A0E2" width="3.335" height="2.92"/>
	<rect x="79.538" y="135.992" fill="#29A0E2" width="3.335" height="2.92"/>
	<rect x="54.413" y="135.992" fill="#29A0E2" width="3.335" height="2.92"/>
	<rect x="180.039" y="135.992" fill="#29A0E2" width="3.335" height="2.92"/>
	<rect x="167.476" y="135.992" fill="#29A0E2" width="3.335" height="2.92"/>
	<rect x="192.602" y="135.992" fill="#29A0E2" width="3.335" height="2.92"/>
	<rect x="154.914" y="135.992" fill="#29A0E2" width="3.335" height="2.92"/>
	<rect x="205.164" y="135.992" fill="#29A0E2" width="3.335" height="2.92"/>
	<rect x="142.351" y="135.992" fill="#29A0E2" width="3.335" height="2.92"/>
	<rect x="129.789" y="135.992" fill="#29A0E2" width="3.335" height="2.92"/>
</g>
</svg>
