<?xml version="1.0" encoding="utf-8"?>
<!-- Generator: Adobe Illustrator 17.0.0, SVG Export Plug-In . SVG Version: 6.00 Build 0)  -->
<!DOCTYPE svg PUBLIC "-//W3C//DTD SVG 1.1//EN" "http://www.w3.org/Graphics/SVG/1.1/DTD/svg11.dtd">
<svg version="1.1" id="Layer_1" xmlns="http://www.w3.org/2000/svg" xmlns:xlink="http://www.w3.org/1999/xlink" x="0px" y="0px"
	 width="607.147px" height="141.546px" viewBox="0 0 607.147 141.546" enable-background="new 0 0 607.147 141.546"
	 xml:space="preserve">
<path fill="#FFFFFF" d="M133.463,49.292l-3.947,3.947l-6.515-6.515l3.947-3.947L84.171,0L0,84.171l42.777,42.777l3.577-3.577
	l6.515,6.515l-3.577,3.577l8.083,8.083l84.171-84.171L133.463,49.292z M80.897,101.858l-7.441,7.441l-6.515-6.515l7.442-7.442
	L80.897,101.858L80.897,101.858z M108.928,73.826l-7.442,7.442l-6.515-6.515l7.442-7.442L108.928,73.826z"/>
<g>
	<path fill="#FFFFFF" d="M184.009,30.202c12.1,0,18.319,7.237,18.319,19.902v2.488h-11.761v-3.279c0-5.654-2.261-7.803-6.219-7.803
		s-6.219,2.149-6.219,7.803c0,16.283,24.311,19.336,24.311,41.952c0,12.666-6.332,19.903-18.545,19.903
		c-12.212,0-18.545-7.237-18.545-19.903v-4.862h11.761v5.654c0,5.654,2.487,7.69,6.445,7.69s6.445-2.036,6.445-7.69
		c0-16.283-24.311-19.336-24.311-41.952C165.69,37.44,171.909,30.202,184.009,30.202z"/>
	<path fill="#FFFFFF" d="M220.009,31.108V92.17c0,5.654,2.489,7.69,6.447,7.69s6.445-2.036,6.445-7.69V31.108h11.761v60.27
		c0,12.665-6.334,19.902-18.545,19.902c-12.213,0-18.545-7.237-18.545-19.902v-60.27H220.009z"/>
	<path fill="#FFFFFF" d="M287.866,50.67v10.29c0,12.665-6.107,19.562-18.545,19.562h-5.881v29.74h-12.438V31.108h18.319
		C281.759,31.108,287.866,38.005,287.866,50.67z M263.44,42.416v26.8h5.881c3.958,0,6.106-1.809,6.106-7.463V49.878
		c0-5.654-2.148-7.462-6.106-7.462C269.321,42.416,263.44,42.416,263.44,42.416z"/>
	<path fill="#FFFFFF" d="M305.072,64.465h17.076v11.308h-17.076v23.181h21.485v11.308h-33.923V31.108h33.923v11.308h-21.485
		L305.072,64.465L305.072,64.465z"/>
	<path fill="#FFFFFF" d="M358.205,110.263c-0.679-2.036-1.131-3.279-1.131-9.725V88.099c0-7.35-2.487-10.064-8.142-10.064h-4.297
		v32.227h-12.438V31.108h18.771c12.89,0,18.43,5.993,18.43,18.206v6.219c0,8.142-2.6,13.457-8.14,16.057
		c6.219,2.601,8.254,8.595,8.254,16.849v12.212c0,3.845,0.113,6.672,1.358,9.612C370.87,110.263,358.205,110.263,358.205,110.263z
		 M344.634,42.416v24.311h4.863c4.637,0,7.463-2.036,7.463-8.368v-7.803c0-5.654-1.923-8.141-6.332-8.141L344.634,42.416
		L344.634,42.416z"/>
	<path fill="#FFFFFF" d="M408.518,111.168c-12.553,0-19.45-7.237-19.45-19.903v-6.219c0-7.576,2.263-13.457,7.69-16.51
		c-5.201-2.827-7.69-8.141-7.69-15.944v-2.488c0-12.665,6.898-19.902,19.45-19.902c12.551,0,19.449,7.237,19.449,19.902v2.488
		c0,7.803-2.6,13.117-7.688,15.944c5.427,3.053,7.688,8.933,7.688,16.51v6.219C427.967,103.931,421.069,111.168,408.518,111.168z
		 M401.508,54.967c0,6.332,2.94,8.368,7.011,8.368c3.958,0,7.011-2.036,7.011-8.368v-4.41c0-7.124-3.053-9.046-7.011-9.046
		c-3.958,0-7.011,1.922-7.011,9.046V54.967z M408.518,99.859c3.958,0,6.898-1.922,7.011-8.933v-7.35c0-6.22-2.6-8.933-7.011-8.933
		c-4.41,0-7.011,2.713-7.011,8.933v7.35C401.508,97.937,404.561,99.859,408.518,99.859z"/>
	<path fill="#FFFFFF" d="M483.371,49.313v2.827c0,8.142-2.487,13.344-8.027,15.944c6.671,2.601,9.272,8.595,9.272,16.962v6.445
		c0,12.213-6.445,18.771-18.885,18.771h-19.562V31.108h18.771C477.831,31.108,483.371,37.1,483.371,49.313z M458.607,42.416v20.919
		h4.863c4.637,0,7.463-2.036,7.463-8.368v-4.41c0-5.654-1.923-8.141-6.332-8.141C464.601,42.416,458.607,42.416,458.607,42.416z
		 M458.607,74.643v24.311h7.124c4.184,0,6.447-1.922,6.447-7.802v-6.898c0-7.35-2.376-9.611-8.029-9.611
		C464.149,74.643,458.607,74.643,458.607,74.643z"/>
	<path fill="#FFFFFF" d="M490.152,31.108h12.438v67.847h20.468v11.308h-32.906L490.152,31.108L490.152,31.108z"/>
	<path fill="#FFFFFF" d="M525.956,50.104c0-12.665,6.671-19.902,18.885-19.902c12.211,0,18.885,7.237,18.885,19.902v41.161
		c0,12.666-6.673,19.903-18.885,19.903c-12.213,0-18.885-7.237-18.885-19.903V50.104z M538.395,92.057
		c0,5.654,2.487,7.803,6.445,7.803s6.445-2.149,6.445-7.803V49.313c0-5.654-2.487-7.803-6.445-7.803s-6.445,2.149-6.445,7.803
		V92.057z"/>
	<path fill="#FFFFFF" d="M589.733,66.161h17.414v25.104c0,12.666-6.332,19.903-18.545,19.903s-18.545-7.237-18.545-19.903v-41.16
		c0-12.665,6.332-19.902,18.545-19.902s18.545,7.237,18.545,19.902v7.69h-11.761v-8.481c0-5.654-2.487-7.803-6.445-7.803
		s-6.445,2.149-6.445,7.803v42.743c0,5.654,2.487,7.69,6.445,7.69s6.445-2.036,6.445-7.69V77.47h-5.653V66.161z"/>
</g>
</svg>
