<?xml version="1.0" encoding="utf-8"?>
<!-- Generator: Adobe Illustrator 17.0.0, SVG Export Plug-In . SVG Version: 6.00 Build 0)  -->
<!DOCTYPE svg PUBLIC "-//W3C//DTD SVG 1.1//EN" "http://www.w3.org/Graphics/SVG/1.1/DTD/svg11.dtd">
<svg version="1.1" id="Layer_1" xmlns="http://www.w3.org/2000/svg" xmlns:xlink="http://www.w3.org/1999/xlink" x="0px" y="0px"
	 width="410.416px" height="84.675px" viewBox="0 0 410.416 84.675" enable-background="new 0 0 410.416 84.675"
	 xml:space="preserve">
<path fill="#29A0E2" d="M117.252,73.415h-5.499v-9.076h5.499V4.75H0v59.589h4.982v9.076H0v11.26h117.252V73.415z M44.027,73.415
	H33.661v-9.076h10.367L44.027,73.415L44.027,73.415z M83.075,73.415H72.708v-9.076h10.367V73.415z"/>
<g>
	<g>
		<path fill="#E5E5E5" d="M147.488,4.75c7.45,0,11.279,4.456,11.279,12.254v1.532h-7.241v-2.019c0-3.481-1.392-4.804-3.829-4.804
			c-2.437,0-3.829,1.323-3.829,4.804c0,10.026,14.969,11.905,14.969,25.83c0,7.798-3.899,12.254-11.418,12.254
			C139.9,54.601,136,50.145,136,42.347v-2.994h7.241v3.481c0,3.481,1.531,4.735,3.968,4.735c2.437,0,3.968-1.253,3.968-4.735
			c0-10.026-14.969-11.905-14.969-25.83C136.209,9.206,140.038,4.75,147.488,4.75z"/>
		<path fill="#E5E5E5" d="M169.653,5.307v37.596c0,3.481,1.532,4.735,3.969,4.735c2.437,0,3.968-1.253,3.968-4.735V5.307h7.241
			v37.109c0,7.798-3.9,12.254-11.418,12.254c-7.52,0-11.418-4.456-11.418-12.254V5.307H169.653z"/>
		<path fill="#E5E5E5" d="M211.433,17.352v6.336c0,7.798-3.76,12.045-11.418,12.045h-3.621v18.311h-7.658V5.307h11.279
			C207.673,5.307,211.433,9.554,211.433,17.352z M196.394,12.27V28.77h3.621c2.437,0,3.759-1.114,3.759-4.595v-7.311
			c0-3.481-1.322-4.595-3.759-4.595H196.394z"/>
		<path fill="#E5E5E5" d="M222.027,25.846h10.514v6.962h-10.514v14.273h13.228v6.962h-20.886V5.307h20.886v6.962h-13.228V25.846z"/>
		<path fill="#E5E5E5" d="M254.741,54.043c-0.418-1.253-0.697-2.019-0.697-5.988v-7.659c0-4.526-1.531-6.196-5.013-6.196h-2.646
			v19.843h-7.658V5.307h11.558c7.937,0,11.348,3.69,11.348,11.209v3.829c0,5.013-1.601,8.285-5.012,9.886
			c3.829,1.602,5.082,5.292,5.082,10.374v7.519c0,2.367,0.07,4.108,0.836,5.918H254.741z M246.386,12.27v14.969h2.994
			c2.855,0,4.595-1.253,4.595-5.152v-4.804c0-3.481-1.184-5.013-3.899-5.013H246.386z"/>
		<path fill="#E5E5E5" d="M285.72,54.601c-7.729,0-11.976-4.456-11.976-12.254v-3.829c0-4.665,1.393-8.285,4.735-10.165
			c-3.202-1.74-4.735-5.013-4.735-9.817v-1.532c0-7.798,4.247-12.254,11.976-12.254c7.728,0,11.975,4.456,11.975,12.254v1.532
			c0,4.804-1.601,8.076-4.734,9.817c3.341,1.88,4.734,5.5,4.734,10.165v3.829C297.694,50.145,293.447,54.601,285.72,54.601z
			 M281.403,19.998c0,3.899,1.81,5.152,4.317,5.152c2.437,0,4.317-1.253,4.317-5.152v-2.716c0-4.386-1.88-5.57-4.317-5.57
			c-2.437,0-4.317,1.184-4.317,5.57V19.998z M285.72,47.638c2.437,0,4.247-1.184,4.317-5.5v-4.526c0-3.83-1.601-5.5-4.317-5.5
			c-2.716,0-4.317,1.671-4.317,5.5v4.526C281.403,46.455,283.283,47.638,285.72,47.638z"/>
		<path fill="#E5E5E5" d="M331.807,16.517v1.74c0,5.013-1.531,8.216-4.942,9.817c4.108,1.602,5.709,5.292,5.709,10.444v3.968
			c0,7.52-3.968,11.558-11.627,11.558h-12.044V5.307h11.558C328.396,5.307,331.807,8.997,331.807,16.517z M316.56,12.27v12.88h2.994
			c2.855,0,4.595-1.253,4.595-5.152v-2.716c0-3.481-1.184-5.013-3.899-5.013H316.56z M316.56,32.112v14.969h4.386
			c2.576,0,3.969-1.184,3.969-4.804V38.03c0-4.526-1.463-5.918-4.943-5.918H316.56z"/>
		<path fill="#E5E5E5" d="M335.982,5.307h7.658v41.774h12.602v6.962h-20.26V5.307z"/>
		<path fill="#E5E5E5" d="M358.642,17.004c0-7.798,4.108-12.254,11.627-12.254c7.519,0,11.627,4.456,11.627,12.254v25.343
			c0,7.798-4.109,12.254-11.627,12.254c-7.52,0-11.627-4.456-11.627-12.254V17.004z M366.301,42.834
			c0,3.481,1.531,4.804,3.968,4.804s3.968-1.323,3.968-4.804V16.517c0-3.481-1.531-4.804-3.968-4.804s-3.968,1.323-3.968,4.804
			V42.834z"/>
		<path fill="#E5E5E5" d="M397.295,26.89h10.722v15.456c0,7.798-3.899,12.254-11.418,12.254c-7.52,0-11.418-4.456-11.418-12.254
			V17.004c0-7.798,3.899-12.254,11.418-12.254c7.52,0,11.418,4.456,11.418,12.254v4.735h-7.241v-5.222
			c0-3.481-1.531-4.804-3.968-4.804c-2.437,0-3.968,1.323-3.968,4.804v26.317c0,3.481,1.531,4.735,3.968,4.735
			c2.437,0,3.968-1.253,3.968-4.735v-8.981h-3.481V26.89z"/>
	</g>
	<path fill="#E5E5E5" d="M410.416,61.526H136v23.149h274.416V61.526z M142.842,81.415v-2.629h3.002v2.629H142.842z M154.152,81.415
		v-2.629h3.002v2.629H154.152z M165.461,81.415v-2.629h3.002v2.629H165.461z M176.77,81.415v-2.629h3.002v2.629H176.77z
		 M188.079,81.415v-2.629h3.002v2.629H188.079z M199.388,81.415v-2.629h3.002v2.629H199.388z M210.698,81.415v-2.629h3.002v2.629
		H210.698z M222.007,81.415v-2.629h3.002v2.629H222.007z M233.316,81.415v-2.629h3.002v2.629H233.316z M244.625,81.415v-2.629h3.002
		v2.629H244.625z M255.934,81.415v-2.629h3.002v2.629H255.934z M267.244,81.415v-2.629h3.002v2.629H267.244z M278.553,81.415v-2.629
		h3.002v2.629H278.553z M289.862,81.415v-2.629h3.002v2.629H289.862z M301.171,81.415v-2.629h3.002v2.629H301.171z M312.48,81.415
		v-2.629h3.002v2.629H312.48z M323.79,81.415v-2.629h3.002v2.629H323.79z M335.099,81.415v-2.629h3.002v2.629H335.099z
		 M346.408,81.415v-2.629h3.002v2.629H346.408z M357.717,81.415v-2.629h3.002v2.629H357.717z M369.026,81.415v-2.629h3.002v2.629
		H369.026z M380.336,81.415v-2.629h3.002v2.629H380.336z M391.645,81.415v-2.629h3.002v2.629H391.645z M402.954,81.415v-2.629h3.002
		v2.629H402.954z"/>
</g>
</svg>
