<?xml version="1.0" encoding="utf-8"?>
<!-- Generator: Adobe Illustrator 17.0.0, SVG Export Plug-In . SVG Version: 6.00 Build 0)  -->
<!DOCTYPE svg PUBLIC "-//W3C//DTD SVG 1.1//EN" "http://www.w3.org/Graphics/SVG/1.1/DTD/svg11.dtd">
<svg version="1.1" id="Layer_1" xmlns="http://www.w3.org/2000/svg" xmlns:xlink="http://www.w3.org/1999/xlink" x="0px" y="0px"
	 width="607.147px" height="141.546px" viewBox="-11.255 -26.865 607.147 141.546"
	 enable-background="new -11.255 -26.865 607.147 141.546" xml:space="preserve">
<path fill="#29A0E2" d="M122.208,22.427l-3.947,3.947l-6.515-6.515l3.947-3.947L72.916-26.865l-84.171,84.171l42.777,42.777
	l3.577-3.577l6.515,6.515l-3.577,3.577l8.083,8.083l84.171-84.171L122.208,22.427z M69.642,74.993l-7.441,7.441l-6.515-6.515
	l7.442-7.442L69.642,74.993L69.642,74.993z M97.673,46.961l-7.442,7.442l-6.515-6.515l7.442-7.442L97.673,46.961z"/>
<g>
	<path fill="#29A0E2" d="M172.754,3.337c12.1,0,18.319,7.237,18.319,19.902v2.488h-11.761v-3.279c0-5.654-2.261-7.803-6.219-7.803
		s-6.219,2.149-6.219,7.803c0,16.283,24.311,19.336,24.311,41.952c0,12.666-6.332,19.903-18.545,19.903
		c-12.212,0-18.545-7.237-18.545-19.903v-4.862h11.761v5.654c0,5.654,2.487,7.69,6.445,7.69s6.445-2.036,6.445-7.69
		c0-16.283-24.311-19.336-24.311-41.952C154.435,10.575,160.654,3.337,172.754,3.337z"/>
	<path fill="#29A0E2" d="M208.754,4.243v61.062c0,5.654,2.489,7.69,6.447,7.69s6.445-2.036,6.445-7.69V4.243h11.761v60.27
		c0,12.665-6.334,19.902-18.545,19.902c-12.213,0-18.545-7.237-18.545-19.902V4.243H208.754z"/>
	<path fill="#29A0E2" d="M276.611,23.805v10.29c0,12.665-6.107,19.562-18.545,19.562h-5.881v29.74h-12.438V4.243h18.319
		C270.504,4.243,276.611,11.14,276.611,23.805z M252.185,15.551v26.8h5.881c3.958,0,6.106-1.809,6.106-7.463V23.013
		c0-5.654-2.148-7.462-6.106-7.462H252.185z"/>
	<path fill="#29A0E2" d="M293.817,37.6h17.076v11.308h-17.076v23.181h21.485v11.308h-33.923V4.243h33.923v11.308h-21.485V37.6z"/>
	<path fill="#29A0E2" d="M346.95,83.398c-0.679-2.036-1.131-3.279-1.131-9.725V61.234c0-7.35-2.487-10.064-8.142-10.064h-4.297
		v32.227h-12.438V4.243h18.771c12.89,0,18.43,5.993,18.43,18.206v6.219c0,8.142-2.6,13.457-8.14,16.057
		c6.219,2.601,8.254,8.595,8.254,16.849v12.212c0,3.845,0.113,6.672,1.358,9.612H346.95z M333.379,15.551v24.311h4.863
		c4.637,0,7.463-2.036,7.463-8.368v-7.803c0-5.654-1.923-8.141-6.332-8.141H333.379z"/>
	<path fill="#29A0E2" d="M397.263,84.303c-12.553,0-19.45-7.237-19.45-19.903v-6.219c0-7.576,2.263-13.457,7.69-16.51
		c-5.201-2.827-7.69-8.141-7.69-15.944v-2.488c0-12.665,6.898-19.902,19.45-19.902c12.551,0,19.449,7.237,19.449,19.902v2.488
		c0,7.803-2.6,13.117-7.688,15.944c5.427,3.053,7.688,8.933,7.688,16.51V64.4C416.712,77.066,409.814,84.303,397.263,84.303z
		 M390.253,28.102c0,6.332,2.94,8.368,7.011,8.368c3.958,0,7.011-2.036,7.011-8.368v-4.41c0-7.124-3.053-9.046-7.011-9.046
		c-3.958,0-7.011,1.922-7.011,9.046V28.102z M397.263,72.994c3.958,0,6.898-1.922,7.011-8.933v-7.35c0-6.22-2.6-8.933-7.011-8.933
		c-4.41,0-7.011,2.713-7.011,8.933v7.35C390.253,71.072,393.306,72.994,397.263,72.994z"/>
	<path fill="#29A0E2" d="M472.116,22.448v2.827c0,8.142-2.487,13.344-8.027,15.944c6.671,2.601,9.272,8.595,9.272,16.962v6.445
		c0,12.213-6.445,18.771-18.885,18.771h-19.562V4.243h18.771C466.576,4.243,472.116,10.235,472.116,22.448z M447.352,15.551V36.47
		h4.863c4.637,0,7.463-2.036,7.463-8.368v-4.41c0-5.654-1.923-8.141-6.332-8.141H447.352z M447.352,47.778v24.311h7.124
		c4.184,0,6.447-1.922,6.447-7.802v-6.898c0-7.35-2.376-9.611-8.029-9.611H447.352z"/>
	<path fill="#29A0E2" d="M478.897,4.243h12.438v67.847h20.468v11.308h-32.906V4.243z"/>
	<path fill="#29A0E2" d="M514.701,23.239c0-12.665,6.671-19.902,18.885-19.902c12.211,0,18.885,7.237,18.885,19.902V64.4
		c0,12.666-6.673,19.903-18.885,19.903c-12.213,0-18.885-7.237-18.885-19.903V23.239z M527.14,65.192
		c0,5.654,2.487,7.803,6.445,7.803c3.958,0,6.445-2.149,6.445-7.803V22.448c0-5.654-2.487-7.803-6.445-7.803
		c-3.958,0-6.445,2.149-6.445,7.803V65.192z"/>
	<path fill="#29A0E2" d="M578.478,39.296h17.414V64.4c0,12.666-6.332,19.903-18.545,19.903s-18.545-7.237-18.545-19.903v-41.16
		c0-12.665,6.332-19.902,18.545-19.902s18.545,7.237,18.545,19.902v7.69h-11.761v-8.481c0-5.654-2.487-7.803-6.445-7.803
		c-3.958,0-6.445,2.149-6.445,7.803v42.743c0,5.654,2.487,7.69,6.445,7.69c3.958,0,6.445-2.036,6.445-7.69V50.605h-5.653V39.296z"/>
</g>
</svg>
