<?xml version="1.0" encoding="utf-8"?>
<!-- Generator: Adobe Illustrator 17.0.0, SVG Export Plug-In . SVG Version: 6.00 Build 0)  -->
<!DOCTYPE svg PUBLIC "-//W3C//DTD SVG 1.1//EN" "http://www.w3.org/Graphics/SVG/1.1/DTD/svg11.dtd">
<svg version="1.1" id="Layer_1" xmlns="http://www.w3.org/2000/svg" xmlns:xlink="http://www.w3.org/1999/xlink" x="0px" y="0px"
	 width="126px" height="84.675px" viewBox="44.5 0 126 84.675" enable-background="new 44.5 0 126 84.675" xml:space="preserve">
<path fill="#E6E7E8" d="M989.5-1.211H-28.63v85.887H989.5V-1.211z M-3.244,72.576v-9.753h11.14v9.753H-3.244z M38.714,72.576v-9.753
	h11.14v9.753H38.714z M80.672,72.576v-9.753h11.14v9.753H80.672z M122.634,72.576v-9.753h11.14v9.753H122.634z M164.591,72.576
	v-9.753h11.14v9.753H164.591z M206.549,72.576v-9.753h11.14v9.753H206.549z M248.511,72.576v-9.753h11.14v9.753H248.511z
	 M290.469,72.576v-9.753h11.14v9.753H290.469z M332.427,72.576v-9.753h11.14v9.753H332.427z M374.388,72.576v-9.753h11.14v9.753
	H374.388z M416.346,72.576v-9.753h11.14v9.753H416.346z M458.304,72.576v-9.753h11.14v9.753H458.304z M500.265,72.576v-9.753h11.14
	v9.753H500.265z M542.223,72.576v-9.753h11.14v9.753H542.223z M584.185,72.576v-9.753h11.14v9.753H584.185z M626.143,72.576v-9.753
	h11.14v9.753H626.143z M668.101,72.576v-9.753h11.14v9.753H668.101z M710.062,72.576v-9.753h11.14v9.753H710.062z M752.02,72.576
	v-9.753h11.14v9.753H752.02z M793.978,72.576v-9.753h11.14v9.753H793.978z M835.939,72.576v-9.753h11.14v9.753H835.939z
	 M877.897,72.576v-9.753h11.14v9.753H877.897z M919.855,72.576v-9.753h11.14v9.753H919.855z M961.816,72.576v-9.753h11.14v9.753
	H961.816z"/>
</svg>
