<?xml version="1.0" encoding="utf-8"?>
<!-- Generator: Adobe Illustrator 17.0.0, SVG Export Plug-In . SVG Version: 6.00 Build 0)  -->
<!DOCTYPE svg PUBLIC "-//W3C//DTD SVG 1.1//EN" "http://www.w3.org/Graphics/SVG/1.1/DTD/svg11.dtd">
<svg version="1.1" id="Layer_1" xmlns="http://www.w3.org/2000/svg" xmlns:xlink="http://www.w3.org/1999/xlink" x="0px" y="0px"
	 width="585.951px" height="84.675px" viewBox="0 0 585.951 84.675" enable-background="new 0 0 585.951 84.675"
	 xml:space="preserve">
<g>
	<path fill="#474747" d="M18.992,1.071c12.317,0,18.648,7.367,18.648,20.259v2.533H25.669v-3.338c0-5.755-2.302-7.943-6.33-7.943
		c-4.029,0-6.33,2.187-6.33,7.943c0,16.575,24.748,19.683,24.748,42.704c0,12.893-6.446,20.26-18.878,20.26
		c-12.431,0-18.878-7.367-18.878-20.26V58.28h11.972v5.755c0,5.755,2.532,7.828,6.561,7.828s6.561-2.072,6.561-7.828
		c0-16.575-24.748-19.683-24.748-42.705C0.345,8.438,6.675,1.071,18.992,1.071z"/>
	<path fill="#474747" d="M55.638,1.992V64.15c0,5.755,2.534,7.828,6.562,7.828c4.029,0,6.561-2.072,6.561-7.828V1.992h11.972v61.352
		c0,12.892-6.447,20.259-18.878,20.259c-12.432,0-18.878-7.367-18.878-20.259V1.992H55.638z"/>
	<path fill="#474747" d="M124.712,21.906v10.475c0,12.892-6.217,19.913-18.878,19.913h-5.987v30.273H87.186V1.992h18.648
		C118.495,1.992,124.712,9.014,124.712,21.906z M99.848,13.503v27.28h5.987c4.029,0,6.215-1.842,6.215-7.597V21.1
		c0-5.755-2.186-7.596-6.215-7.596L99.848,13.503L99.848,13.503z"/>
	<path fill="#474747" d="M142.227,35.949h17.382V47.46h-17.382v23.597h21.87v11.51h-34.531V1.992h34.531v11.511h-21.87V35.949z"/>
	<path fill="#474747" d="M196.313,82.567c-0.691-2.072-1.152-3.338-1.152-9.9V60.006c0-7.482-2.532-10.244-8.288-10.244H182.5
		v32.805h-12.661V1.992h19.108c13.122,0,18.761,6.1,18.761,18.532v6.33c0,8.288-2.647,13.698-8.286,16.345
		c6.33,2.648,8.402,8.749,8.402,17.151v12.431c0,3.914,0.115,6.792,1.382,9.784h-12.892V82.567z M182.499,13.503v24.748h4.95
		c4.72,0,7.597-2.072,7.597-8.518V21.79c0-5.755-1.958-8.287-6.446-8.287C188.6,13.503,182.499,13.503,182.499,13.503z"/>
	<path fill="#E52828" d="M247.529,83.489c-12.778,0-19.799-7.367-19.799-20.26v-6.33c0-7.712,2.303-13.698,7.828-16.806
		c-5.294-2.877-7.828-8.287-7.828-16.23V21.33c0-12.892,7.021-20.259,19.799-20.259c12.776,0,19.797,7.367,19.797,20.259v2.533
		c0,7.943-2.647,13.353-7.826,16.23c5.524,3.108,7.826,9.093,7.826,16.806v6.33C267.327,76.122,260.305,83.489,247.529,83.489z
		 M240.393,26.28c0,6.446,2.992,8.518,7.137,8.518c4.029,0,7.137-2.072,7.137-8.518v-4.49c0-7.252-3.108-9.209-7.137-9.209
		c-4.029,0-7.137,1.957-7.137,9.209V26.28z M247.529,71.979c4.029,0,7.021-1.957,7.137-9.093v-7.482
		c0-6.331-2.647-9.093-7.137-9.093s-7.137,2.762-7.137,9.093v7.482C240.393,70.021,243.5,71.979,247.529,71.979z"/>
	<path fill="#29A0E2" d="M323.725,20.525v2.877c0,8.288-2.532,13.583-8.171,16.23c6.791,2.648,9.438,8.749,9.438,17.266v6.561
		c0,12.432-6.561,19.108-19.223,19.108h-19.913V1.992h19.108C318.085,1.992,323.725,8.092,323.725,20.525z M298.517,13.503v21.295
		h4.95c4.72,0,7.597-2.072,7.597-8.518v-4.49c0-5.755-1.958-8.287-6.446-8.287C304.618,13.503,298.517,13.503,298.517,13.503z
		 M298.517,46.309v24.748h7.252c4.259,0,6.562-1.957,6.562-7.942v-7.022c0-7.482-2.418-9.784-8.173-9.784
		C304.158,46.309,298.517,46.309,298.517,46.309z"/>
	<path fill="#29A0E2" d="M330.628,1.992h12.661v69.064h20.836v11.511h-33.496V1.992H330.628z"/>
	<path fill="#29A0E2" d="M368.091,21.33c0-12.892,6.791-20.259,19.223-20.259c12.431,0,19.223,7.367,19.223,20.259v41.899
		c0,12.893-6.793,20.26-19.223,20.26c-12.432,0-19.223-7.367-19.223-20.26V21.33z M380.754,64.035c0,5.755,2.532,7.943,6.561,7.943
		s6.561-2.187,6.561-7.943v-43.51c0-5.755-2.532-7.943-6.561-7.943c-4.029,0-6.561,2.187-6.561,7.943V64.035z"/>
	<path fill="#29A0E2" d="M431.995,37.675h17.726v25.554c0,12.893-6.446,20.26-18.878,20.26s-18.878-7.367-18.878-20.26V21.33
		c0-12.892,6.446-20.259,18.878-20.259c12.432,0,18.878,7.367,18.878,20.259v7.828H437.75v-8.633c0-5.755-2.532-7.943-6.561-7.943
		s-6.561,2.187-6.561,7.943v43.51c0,5.755,2.532,7.828,6.561,7.828s6.561-2.072,6.561-7.828V49.186h-5.755
		C431.995,49.186,431.995,37.675,431.995,37.675z"/>
	<path fill="#E52828" d="M585.951,71.977h-5.678v-9.372h5.678V1.071H464.873v61.533h5.145v9.372h-5.145v11.627h121.077V71.977z
		 M510.336,71.977h-10.704v-9.372h10.705v9.372H510.336z M550.658,71.977h-10.705v-9.372h10.705V71.977z"/>
</g>
</svg>
