<?xml version="1.0" encoding="utf-8"?>
<!-- Generator: Adobe Illustrator 17.0.0, SVG Export Plug-In . SVG Version: 6.00 Build 0)  -->
<!DOCTYPE svg PUBLIC "-//W3C//DTD SVG 1.1//EN" "http://www.w3.org/Graphics/SVG/1.1/DTD/svg11.dtd">
<svg version="1.1" id="Layer_1" xmlns="http://www.w3.org/2000/svg" xmlns:xlink="http://www.w3.org/1999/xlink" x="0px" y="0px"
	 width="592.617px" height="84.675px" viewBox="-415.451 0 592.617 84.675" enable-background="new -415.451 0 592.617 84.675"
	 xml:space="preserve">
<path fill="#B2B2B2" d="M-396.458,2.144c12.317,0,18.648,7.367,18.648,20.259v2.533h-11.972v-3.338c0-5.755-2.302-7.943-6.33-7.943
	c-4.029,0-6.33,2.187-6.33,7.943c0,16.575,24.748,19.683,24.748,42.704c0,12.893-6.446,20.26-18.878,20.26
	c-12.431,0-18.878-7.367-18.878-20.26v-4.949h11.972v5.755c0,5.755,2.532,7.828,6.561,7.828c4.029,0,6.561-2.072,6.561-7.828
	c0-16.575-24.748-19.683-24.748-42.705C-415.105,9.511-408.775,2.144-396.458,2.144z"/>
<path fill="#B2B2B2" d="M-359.812,3.065v62.158c0,5.755,2.534,7.828,6.562,7.828c4.029,0,6.561-2.072,6.561-7.828V3.065h11.972
	v61.352c0,12.892-6.447,20.259-18.878,20.259c-12.432,0-18.878-7.367-18.878-20.259V3.065H-359.812z"/>
<path fill="#B2B2B2" d="M-290.738,22.979v10.475c0,12.892-6.217,19.913-18.878,19.913h-5.987V83.64h-12.661V3.065h18.648
	C-296.955,3.065-290.738,10.087-290.738,22.979z M-315.602,14.576v27.28h5.987c4.029,0,6.215-1.842,6.215-7.597V22.173
	c0-5.755-2.186-7.596-6.215-7.596H-315.602z"/>
<path fill="#B2B2B2" d="M-273.223,37.022h17.382v11.511h-17.382v23.597h21.87V83.64h-34.531V3.065h34.531v11.511h-21.87V37.022z"/>
<path fill="#B2B2B2" d="M-219.137,83.64c-0.691-2.072-1.152-3.338-1.152-9.9V61.079c0-7.482-2.532-10.244-8.288-10.244h-4.374V83.64
	h-12.661V3.065h19.108c13.122,0,18.761,6.1,18.761,18.532v6.33c0,8.288-2.647,13.698-8.286,16.345
	c6.33,2.648,8.402,8.749,8.402,17.151v12.431c0,3.914,0.115,6.792,1.382,9.784H-219.137z M-232.951,14.576v24.748h4.95
	c4.72,0,7.597-2.072,7.597-8.518v-7.943c0-5.755-1.958-8.287-6.446-8.287H-232.951z"/>
<path fill="#FFFFFF" d="M-167.921,84.562c-12.778,0-19.799-7.367-19.799-20.26v-6.33c0-7.712,2.303-13.698,7.828-16.806
	c-5.294-2.877-7.828-8.287-7.828-16.23v-2.533c0-12.892,7.021-20.259,19.799-20.259c12.776,0,19.797,7.367,19.797,20.259v2.533
	c0,7.943-2.647,13.353-7.826,16.23c5.524,3.108,7.826,9.093,7.826,16.806v6.33C-148.123,77.195-155.145,84.562-167.921,84.562z
	 M-175.057,27.353c0,6.446,2.992,8.518,7.137,8.518c4.029,0,7.137-2.072,7.137-8.518v-4.49c0-7.252-3.108-9.209-7.137-9.209
	c-4.029,0-7.137,1.957-7.137,9.209V27.353z M-167.921,73.051c4.029,0,7.021-1.957,7.137-9.093v-7.482
	c0-6.331-2.647-9.093-7.137-9.093s-7.137,2.762-7.137,9.093v7.482C-175.057,71.094-171.95,73.051-167.921,73.051z"/>
<path fill="#8E8E8E" d="M-91.725,21.598v2.877c0,8.288-2.532,13.583-8.171,16.23c6.791,2.648,9.438,8.749,9.438,17.266v6.561
	c0,12.432-6.561,19.108-19.223,19.108h-19.913V3.065h19.108C-97.365,3.065-91.725,9.165-91.725,21.598z M-116.933,14.576v21.295
	h4.95c4.72,0,7.597-2.072,7.597-8.518v-4.49c0-5.755-1.958-8.287-6.446-8.287H-116.933z M-116.933,47.382v24.748h7.252
	c4.259,0,6.562-1.957,6.562-7.942v-7.022c0-7.482-2.418-9.784-8.173-9.784H-116.933z"/>
<path fill="#8E8E8E" d="M-84.822,3.065h12.661v69.064h20.836V83.64h-33.496V3.065z"/>
<path fill="#8E8E8E" d="M-47.359,22.403c0-12.892,6.791-20.259,19.223-20.259c12.431,0,19.223,7.367,19.223,20.259v41.899
	c0,12.893-6.793,20.26-19.223,20.26c-12.432,0-19.223-7.367-19.223-20.26V22.403z M-34.696,65.108c0,5.755,2.532,7.943,6.561,7.943
	s6.561-2.187,6.561-7.943v-43.51c0-5.755-2.532-7.943-6.561-7.943s-6.561,2.187-6.561,7.943V65.108z"/>
<path fill="#8E8E8E" d="M17.545,38.748h17.726v25.554c0,12.893-6.446,20.26-18.878,20.26s-18.878-7.367-18.878-20.26V22.403
	c0-12.892,6.446-20.259,18.878-20.259s18.878,7.367,18.878,20.259v7.828H23.3v-8.633c0-5.755-2.532-7.943-6.561-7.943
	s-6.561,2.187-6.561,7.943v43.51c0,5.755,2.532,7.828,6.561,7.828s6.561-2.072,6.561-7.828V50.259h-5.755V38.748z"/>
<path fill="#FFFFFF" d="M177.167,73.049h-5.678v-9.372h5.678V2.144H56.089v61.533h5.145v9.372h-5.145v11.627h121.077V73.049z
	 M101.553,73.049H90.848v-9.372h10.705V73.049z M141.875,73.049H131.17v-9.372h10.705V73.049z"/>
</svg>
