<?xml version="1.0" encoding="utf-8"?>
<!-- Generator: Adobe Illustrator 17.0.0, SVG Export Plug-In . SVG Version: 6.00 Build 0)  -->
<!DOCTYPE svg PUBLIC "-//W3C//DTD SVG 1.1//EN" "http://www.w3.org/Graphics/SVG/1.1/DTD/svg11.dtd">
<svg version="1.1" id="Layer_1" xmlns="http://www.w3.org/2000/svg" xmlns:xlink="http://www.w3.org/1999/xlink" x="0px" y="0px"
	 width="290.726px" height="84.675px" viewBox="0 0 290.726 84.675" enable-background="new 0 0 290.726 84.675"
	 xml:space="preserve">
<path fill="#E6E7E8" d="M13.868,0c7.893,0,11.949,4.721,11.949,12.982v1.623h-7.671v-2.139c0-3.688-1.475-5.09-4.057-5.09
	s-4.057,1.402-4.057,5.09c0,10.622,15.858,12.613,15.858,27.365c0,8.262-4.13,12.983-12.097,12.983
	c-7.966,0-12.097-4.721-12.097-12.983v-3.172h7.671v3.688c0,3.688,1.622,5.016,4.204,5.016s4.204-1.328,4.204-5.016
	c0-10.622-15.858-12.613-15.858-27.366C1.919,4.721,5.975,0,13.868,0z"/>
<path fill="#E6E7E8" d="M37.351,0.59v39.831c0,3.688,1.623,5.016,4.205,5.016c2.582,0,4.204-1.328,4.204-5.016V0.59h7.671v39.314
	c0,8.261-4.131,12.982-12.097,12.982c-7.967,0-12.097-4.721-12.097-12.982V0.59H37.351z"/>
<path fill="#E6E7E8" d="M81.614,13.351v6.712c0,8.261-3.984,12.761-12.097,12.761h-3.836v19.399h-8.113V0.59h11.949
	C77.63,0.59,81.614,5.09,81.614,13.351z M65.681,7.967v17.481h3.836c2.582,0,3.983-1.18,3.983-4.868v-7.745
	c0-3.688-1.401-4.868-3.983-4.868C69.517,7.967,65.681,7.967,65.681,7.967z"/>
<path fill="#E6E7E8" d="M92.837,22.35h11.139v7.376H92.837v15.121h14.015v7.376H84.724V0.59h22.128v7.376H92.837V22.35z"/>
<path fill="#E6E7E8" d="M127.496,52.223c-0.443-1.328-0.738-2.139-0.738-6.344v-8.114c0-4.795-1.622-6.565-5.311-6.565h-2.803
	v21.022h-8.113V0.59h12.245c8.408,0,12.022,3.909,12.022,11.876v4.057c0,5.311-1.696,8.778-5.31,10.474
	c4.057,1.697,5.384,5.606,5.384,10.991v7.966c0,2.508,0.074,4.352,0.886,6.27h-8.262V52.223z M118.644,7.967v15.858h3.172
	c3.025,0,4.868-1.328,4.868-5.458v-5.09c0-3.688-1.255-5.311-4.13-5.311L118.644,7.967L118.644,7.967z"/>
<path fill="#BCBEC0" d="M160.315,52.814c-8.188,0-12.687-4.721-12.687-12.983v-4.057c0-4.942,1.476-8.778,5.016-10.769
	c-3.392-1.844-5.016-5.311-5.016-10.4v-1.623C147.628,4.721,152.127,0,160.315,0c8.187,0,12.686,4.721,12.686,12.982v1.623
	c0,5.09-1.696,8.556-5.015,10.4c3.54,1.991,5.015,5.827,5.015,10.769v4.057C173.002,48.093,168.502,52.814,160.315,52.814z
	 M155.742,16.154c0,4.13,1.918,5.458,4.573,5.458c2.582,0,4.573-1.328,4.573-5.458v-2.877c0-4.647-1.991-5.901-4.573-5.901
	s-4.573,1.254-4.573,5.901V16.154z M160.315,45.437c2.582,0,4.499-1.254,4.573-5.827v-4.795c0-4.057-1.696-5.827-4.573-5.827
	s-4.573,1.77-4.573,5.827v4.795C155.742,44.183,157.734,45.437,160.315,45.437z"/>
<path fill="#E6E7E8" d="M209.142,12.466v1.844c0,5.311-1.622,8.704-5.236,10.4c4.352,1.697,6.048,5.606,6.048,11.064v4.204
	c0,7.967-4.204,12.245-12.318,12.245h-12.76V0.59h12.245C205.528,0.59,209.142,4.499,209.142,12.466z M192.988,7.967v13.646h3.172
	c3.025,0,4.868-1.328,4.868-5.458v-2.877c0-3.688-1.255-5.311-4.13-5.311C196.898,7.967,192.988,7.967,192.988,7.967z
	 M192.988,28.989v15.858h4.647c2.729,0,4.205-1.254,4.205-5.089v-4.5c0-4.795-1.55-6.269-5.237-6.269
	C196.603,28.989,192.988,28.989,192.988,28.989z"/>
<path fill="#E6E7E8" d="M213.565,0.59h8.113v44.257h13.352v7.376h-21.465L213.565,0.59L213.565,0.59z"/>
<path fill="#E6E7E8" d="M237.572,12.982C237.572,4.721,241.924,0,249.891,0c7.966,0,12.318,4.721,12.318,12.982v26.849
	c0,8.262-4.353,12.983-12.318,12.983c-7.967,0-12.318-4.721-12.318-12.983V12.982H237.572z M245.686,40.348
	c0,3.688,1.622,5.09,4.204,5.09s4.204-1.402,4.204-5.09V12.466c0-3.688-1.622-5.09-4.204-5.09s-4.204,1.402-4.204,5.09V40.348z"/>
<path fill="#E6E7E8" d="M278.522,23.456h11.359v16.375c0,8.262-4.13,12.983-12.097,12.983s-12.097-4.721-12.097-12.983V12.982
	c0-8.261,4.13-12.982,12.097-12.982c7.967,0,12.097,4.721,12.097,12.982v5.016h-7.671v-5.532c0-3.688-1.622-5.09-4.204-5.09
	s-4.204,1.402-4.204,5.09v27.882c0,3.688,1.622,5.016,4.204,5.016s4.204-1.328,4.204-5.016v-9.515h-3.688V23.456z"/>
<path fill="#BCBEC0" d="M290.726,60.151H0v24.525h290.726V60.151z M7.249,81.221v-2.785h3.181v2.785H7.249z M19.23,81.221v-2.785
	h3.181v2.785H19.23z M31.212,81.221v-2.785h3.181v2.785H31.212z M43.193,81.221v-2.785h3.181v2.785H43.193z M55.174,81.221v-2.785
	h3.181v2.785H55.174z M67.156,81.221v-2.785h3.181v2.785H67.156z M79.137,81.221v-2.785h3.181v2.785H79.137z M91.119,81.221v-2.785
	H94.3v2.785H91.119z M103.1,81.221v-2.785h3.181v2.785H103.1z M115.081,81.221v-2.785h3.181v2.785H115.081z M127.063,81.221v-2.785
	h3.181v2.785H127.063z M139.044,81.221v-2.785h3.181v2.785H139.044z M151.025,81.221v-2.785h3.181v2.785H151.025z M163.007,81.221
	v-2.785h3.181v2.785H163.007z M174.988,81.221v-2.785h3.181v2.785H174.988z M186.969,81.221v-2.785h3.181v2.785H186.969z
	 M198.951,81.221v-2.785h3.181v2.785H198.951z M210.932,81.221v-2.785h3.181v2.785H210.932z M222.914,81.221v-2.785h3.181v2.785
	H222.914z M234.895,81.221v-2.785h3.181v2.785H234.895z M246.876,81.221v-2.785h3.181v2.785H246.876z M258.858,81.221v-2.785h3.181
	v2.785H258.858z M270.839,81.221v-2.785h3.181v2.785H270.839z M282.82,81.221v-2.785h3.181v2.785H282.82z"/>
</svg>
