<?xml version="1.0" encoding="utf-8"?>
<!-- Generator: Adobe Illustrator 17.0.0, SVG Export Plug-In . SVG Version: 6.00 Build 0)  -->
<!DOCTYPE svg PUBLIC "-//W3C//DTD SVG 1.1//EN" "http://www.w3.org/Graphics/SVG/1.1/DTD/svg11.dtd">
<svg version="1.1" id="Layer_1" xmlns="http://www.w3.org/2000/svg" xmlns:xlink="http://www.w3.org/1999/xlink" x="0px" y="0px"
	 width="451.419px" height="82.532px" viewBox="0 0 451.419 82.532" enable-background="new 0 0 451.419 82.532"
	 xml:space="preserve">
<g>
	<path fill="#E6E7E8" d="M20.69,0c12.317,0,18.648,7.367,18.648,20.259v2.533H27.366v-3.338c0-5.755-2.302-7.943-6.33-7.943
		s-6.33,2.187-6.33,7.943c0,16.575,24.748,19.683,24.748,42.704c0,12.893-6.446,20.26-18.878,20.26
		c-12.431,0-18.878-7.367-18.878-20.26v-4.949h11.972v5.755c0,5.755,2.532,7.828,6.561,7.828s6.561-2.072,6.561-7.828
		c0-16.575-24.748-19.683-24.748-42.705C2.043,7.367,8.373,0,20.69,0z"/>
	<path fill="#E6E7E8" d="M57.336,0.921v62.158c0,5.755,2.534,7.828,6.562,7.828c4.029,0,6.561-2.072,6.561-7.828V0.921h11.972
		v61.352c0,12.892-6.447,20.259-18.878,20.259c-12.432,0-18.878-7.367-18.878-20.259V0.921H57.336z"/>
	<path fill="#E6E7E8" d="M126.41,20.835v10.475c0,12.892-6.217,19.913-18.878,19.913h-5.987v30.274H88.885V0.921h18.648
		C120.193,0.921,126.41,7.943,126.41,20.835z M101.546,12.432v27.28h5.987c4.029,0,6.215-1.842,6.215-7.597V20.029
		c0-5.755-2.186-7.596-6.215-7.596H101.546z"/>
	<path fill="#E6E7E8" d="M143.925,34.878h17.382v11.511h-17.382v23.597h21.87v11.511h-34.531V0.921h34.531v11.511h-21.87V34.878z"/>
	<path fill="#E6E7E8" d="M198.011,81.496c-0.691-2.072-1.152-3.338-1.152-9.9V58.935c0-7.482-2.532-10.244-8.288-10.244h-4.374
		v32.806h-12.661V0.921h19.108c13.122,0,18.761,6.1,18.761,18.532v6.33c0,8.288-2.647,13.698-8.286,16.345
		c6.33,2.648,8.402,8.749,8.402,17.151v12.431c0,3.914,0.115,6.792,1.382,9.784H198.011z M184.197,12.432V37.18h4.95
		c4.72,0,7.597-2.072,7.597-8.518V20.72c0-5.755-1.958-8.287-6.446-8.287H184.197z"/>
	<path fill="#E6E7E8" d="M249.227,82.418c-12.778,0-19.799-7.367-19.799-20.26v-6.33c0-7.712,2.303-13.698,7.828-16.806
		c-5.294-2.877-7.828-8.287-7.828-16.23v-2.533C229.428,7.367,236.45,0,249.227,0c12.776,0,19.797,7.367,19.797,20.259v2.533
		c0,7.943-2.647,13.353-7.826,16.23c5.524,3.108,7.826,9.093,7.826,16.806v6.33C269.025,75.051,262.003,82.418,249.227,82.418z
		 M242.091,25.209c0,6.446,2.992,8.518,7.137,8.518c4.029,0,7.137-2.072,7.137-8.518v-4.49c0-7.252-3.108-9.209-7.137-9.209
		c-4.029,0-7.137,1.957-7.137,9.209V25.209z M249.227,70.907c4.029,0,7.021-1.957,7.137-9.093v-7.482
		c0-6.331-2.647-9.093-7.137-9.093c-4.49,0-7.137,2.762-7.137,9.093v7.482C242.091,68.95,245.198,70.907,249.227,70.907z"/>
	<path fill="#E6E7E8" d="M325.423,19.454v2.877c0,8.288-2.532,13.583-8.171,16.23c6.791,2.648,9.438,8.749,9.438,17.266v6.561
		c0,12.432-6.561,19.108-19.223,19.108h-19.913V0.921h19.108C319.783,0.921,325.423,7.021,325.423,19.454z M300.215,12.432v21.295
		h4.95c4.72,0,7.597-2.072,7.597-8.518v-4.49c0-5.755-1.958-8.287-6.446-8.287H300.215z M300.215,45.238v24.748h7.252
		c4.259,0,6.562-1.957,6.562-7.942v-7.022c0-7.482-2.418-9.784-8.173-9.784H300.215z"/>
	<path fill="#E6E7E8" d="M332.326,0.921h12.661v69.064h20.836v11.511h-33.496V0.921z"/>
	<path fill="#E6E7E8" d="M369.79,20.259C369.79,7.367,376.581,0,389.013,0c12.431,0,19.223,7.367,19.223,20.259v41.899
		c0,12.893-6.793,20.26-19.223,20.26c-12.432,0-19.223-7.367-19.223-20.26V20.259z M382.452,62.964c0,5.755,2.532,7.943,6.561,7.943
		s6.561-2.187,6.561-7.943v-43.51c0-5.755-2.532-7.943-6.561-7.943s-6.561,2.187-6.561,7.943V62.964z"/>
	<path fill="#E6E7E8" d="M433.693,36.604h17.726v25.554c0,12.893-6.446,20.26-18.878,20.26s-18.878-7.367-18.878-20.26V20.259
		C413.664,7.367,420.109,0,432.542,0s18.878,7.367,18.878,20.259v7.828h-11.972v-8.633c0-5.755-2.532-7.943-6.561-7.943
		c-4.029,0-6.561,2.187-6.561,7.943v43.51c0,5.755,2.532,7.828,6.561,7.828c4.029,0,6.561-2.072,6.561-7.828V48.115h-5.755V36.604z"
		/>
</g>
</svg>
