<?xml version="1.0" encoding="utf-8"?>
<!-- Generator: Adobe Illustrator 17.0.0, SVG Export Plug-In . SVG Version: 6.00 Build 0)  -->
<!DOCTYPE svg PUBLIC "-//W3C//DTD SVG 1.1//EN" "http://www.w3.org/Graphics/SVG/1.1/DTD/svg11.dtd">
<svg version="1.1" id="Layer_1" xmlns="http://www.w3.org/2000/svg" xmlns:xlink="http://www.w3.org/1999/xlink" x="0px" y="0px"
	 width="143px" height="141.546px" viewBox="18.073 0 143 141.546" enable-background="new 18.073 0 143 141.546"
	 xml:space="preserve">
<rect x="67.573" y="15.273" fill="#FFFFFF" width="72.5" height="123.447"/>
<path id="White_2_" fill="#3D5A98" d="M149.984,2.826H29.09c-4.143,0-7.5,3.357-7.5,7.5V131.22c0,4.142,3.357,7.5,7.5,7.5h65.085
	V86.095h-17.71V65.586h17.71V50.461c0-17.552,10.72-27.11,26.378-27.11c7.5,0,13.946,0.558,15.825,0.808v18.343l-10.86,0.005
	c-8.516,0-10.165,4.047-10.165,9.985v13.094h20.309l-2.644,20.509h-17.665v52.625h34.629c4.142,0,7.5-3.358,7.5-7.5V10.326
	C157.484,6.183,154.126,2.826,149.984,2.826z"/>
</svg>
