<?xml version="1.0" encoding="utf-8"?>
<!-- Generator: Adobe Illustrator 17.0.0, SVG Export Plug-In . SVG Version: 6.00 Build 0)  -->
<!DOCTYPE svg PUBLIC "-//W3C//DTD SVG 1.1//EN" "http://www.w3.org/Graphics/SVG/1.1/DTD/svg11.dtd">
<svg version="1.1" id="Layer_1" xmlns="http://www.w3.org/2000/svg" xmlns:xlink="http://www.w3.org/1999/xlink" x="0px" y="0px"
	 width="347.223px" height="172px" viewBox="0 0 347.223 172" enable-background="new 0 0 347.223 172" xml:space="preserve">
<g>
	<path fill="#F1F1F1" d="M23.722,11.8v1.607c0,4.628-1.414,7.585-4.564,9.064c3.792,1.479,5.271,4.886,5.271,9.643v3.664
		c0,6.943-3.664,10.671-10.735,10.671H2.572v-45h10.671C20.572,1.451,23.722,4.857,23.722,11.8z M9.643,7.879v11.893h2.765
		c2.636,0,4.243-1.157,4.243-4.757v-2.507c0-3.214-1.093-4.629-3.6-4.629H9.643z M9.643,26.2v13.821h4.05
		c2.378,0,3.664-1.093,3.664-4.436v-3.921c0-4.179-1.35-5.464-4.564-5.464H9.643z"/>
	<path fill="#F1F1F1" d="M27.627,1.451h7.071v38.571h11.636v6.429H27.627V1.451z"/>
	<path fill="#F1F1F1" d="M48.595,12.25c0-7.2,3.793-11.314,10.736-11.314S70.066,5.05,70.066,12.25v23.4
		c0,7.2-3.793,11.314-10.736,11.314S48.595,42.85,48.595,35.65V12.25z M55.667,36.1c0,3.214,1.414,4.436,3.664,4.436
		s3.664-1.222,3.664-4.436V11.8c0-3.214-1.414-4.436-3.664-4.436s-3.664,1.221-3.664,4.436V36.1z"/>
	<path fill="#F1F1F1" d="M84.329,21.379h9.9V35.65c0,7.2-3.6,11.314-10.543,11.314S73.143,42.85,73.143,35.65v-23.4
		c0-7.2,3.6-11.314,10.543-11.314S94.229,5.05,94.229,12.25v4.372h-6.686V11.8c0-3.214-1.414-4.436-3.664-4.436
		s-3.664,1.221-3.664,4.436v24.3c0,3.214,1.414,4.372,3.664,4.372s3.664-1.157,3.664-4.372v-8.292h-3.214V21.379z"/>
	<path fill="#F1F1F1" d="M108.492,21.379h9.9V35.65c0,7.2-3.6,11.314-10.543,11.314S97.306,42.85,97.306,35.65v-23.4
		c0-7.2,3.6-11.314,10.543-11.314s10.543,4.114,10.543,11.314v4.372h-6.686V11.8c0-3.214-1.414-4.436-3.664-4.436
		s-3.664,1.221-3.664,4.436v24.3c0,3.214,1.414,4.372,3.664,4.372s3.664-1.157,3.664-4.372v-8.292h-3.214V21.379z"/>
	<path fill="#F1F1F1" d="M121.835,1.451h7.071v45h-7.071V1.451z"/>
	<path fill="#F1F1F1" d="M139.017,13.857V46.45h-6.364v-45h8.871l7.264,26.936V1.451h6.3v45h-7.265L139.017,13.857z"/>
	<path fill="#F1F1F1" d="M169.723,21.379h9.9V35.65c0,7.2-3.6,11.314-10.543,11.314s-10.543-4.114-10.543-11.314v-23.4
		c0-7.2,3.6-11.314,10.543-11.314s10.543,4.114,10.543,11.314v4.372h-6.686V11.8c0-3.214-1.414-4.436-3.664-4.436
		s-3.664,1.221-3.664,4.436v24.3c0,3.214,1.414,4.372,3.664,4.372s3.664-1.157,3.664-4.372v-8.292h-3.214V21.379z"/>
	<path fill="#F1F1F1" d="M203.662,0.936c6.879,0,10.415,4.114,10.415,11.314v1.414h-6.686V11.8c0-3.214-1.286-4.436-3.536-4.436
		s-3.536,1.221-3.536,4.436c0,9.257,13.821,10.993,13.821,23.85c0,7.2-3.6,11.314-10.542,11.314s-10.543-4.114-10.543-11.314v-2.764
		h6.686V36.1c0,3.214,1.415,4.372,3.665,4.372s3.664-1.157,3.664-4.372c0-9.257-13.821-10.993-13.821-23.85
		C193.248,5.05,196.784,0.936,203.662,0.936z"/>
	<path fill="#F1F1F1" d="M224.173,1.451v34.714c0,3.214,1.415,4.372,3.665,4.372s3.664-1.157,3.664-4.372V1.451h6.686v34.264
		c0,7.2-3.6,11.314-10.542,11.314c-6.943,0-10.543-4.114-10.543-11.314V1.451H224.173z"/>
	<path fill="#F1F1F1" d="M262.8,12.572v5.85c0,7.2-3.471,11.121-10.542,11.121h-3.343V46.45h-7.071v-45h10.415
		C259.329,1.451,262.8,5.372,262.8,12.572z M248.914,7.879v15.236h3.343c2.25,0,3.471-1.029,3.471-4.243v-6.75
		c0-3.214-1.221-4.243-3.471-4.243H248.914z"/>
	<path fill="#F1F1F1" d="M272.627,20.415h9.708v6.429h-9.708v13.178h12.214v6.429h-19.286v-45h19.286v6.428h-12.214V20.415z"/>
	<path fill="#F1F1F1" d="M302.884,46.45c-0.386-1.157-0.643-1.864-0.643-5.528V33.85c0-4.178-1.414-5.721-4.629-5.721h-2.443V46.45
		h-7.071v-45h10.671c7.328,0,10.479,3.407,10.479,10.35v3.536c0,4.629-1.479,7.65-4.629,9.129c3.536,1.479,4.693,4.885,4.693,9.578
		v6.943c0,2.186,0.064,3.793,0.771,5.464H302.884z M295.169,7.879V21.7h2.765c2.635,0,4.243-1.157,4.243-4.757v-4.436
		c0-3.214-1.093-4.629-3.6-4.629H295.169z"/>
	<path fill="#F1F1F1" d="M334.059,46.964c-7.136,0-11.057-4.114-11.057-11.314v-3.536c0-4.307,1.285-7.65,4.371-9.386
		c-2.957-1.607-4.371-4.628-4.371-9.064V12.25c0-7.2,3.921-11.314,11.057-11.314s11.057,4.114,11.057,11.314v1.414
		c0,4.436-1.479,7.457-4.371,9.064c3.086,1.736,4.371,5.079,4.371,9.386v3.536C345.115,42.85,341.194,46.964,334.059,46.964z
		 M330.073,15.015c0,3.6,1.671,4.757,3.985,4.757c2.25,0,3.985-1.157,3.985-4.757v-2.507c0-4.05-1.735-5.143-3.985-5.143
		s-3.985,1.093-3.985,5.143V15.015z M334.059,40.536c2.25,0,3.921-1.093,3.985-5.079v-4.179c0-3.536-1.479-5.079-3.985-5.079
		s-3.985,1.543-3.985,5.079v4.179C330.073,39.443,331.809,40.536,334.059,40.536z"/>
	<path fill="#F1F1F1" d="M9.643,83.443h9.129v6.428H9.643v18.579H2.572v-45h18.707v6.428H9.643V83.443z"/>
	<path fill="#F1F1F1" d="M24.092,63.451h7.071v45h-7.071V63.451z"/>
	<path fill="#F1F1F1" d="M34.942,63.451h7.071v38.571h11.636v6.429H34.942V63.451z"/>
	<path fill="#F1F1F1" d="M71.332,95.4l4.821-31.95h9.836v45h-6.686V76.179l-4.886,32.271h-6.686L62.46,76.629v31.821h-6.171v-45
		h9.835L71.332,95.4z"/>
	<path fill="#F1F1F1" d="M104.865,95.4l4.821-31.95h9.836v45h-6.686V76.179l-4.886,32.271h-6.686l-5.271-31.821v31.821h-6.171v-45
		h9.835L104.865,95.4z"/>
	<path fill="#F1F1F1" d="M147.064,108.45h-7.136l-1.221-8.164h-8.679l-1.221,8.164h-6.493l7.2-45h10.35L147.064,108.45z
		 M130.929,94.179h6.814l-3.407-22.757L130.929,94.179z"/>
	<path fill="#F1F1F1" d="M159.077,90.515l-2.186,4.114v13.821h-7.071v-45h7.071v19.607l9.257-19.607h7.071l-9.835,20.057
		l9.835,24.943h-7.264L159.077,90.515z"/>
	<path fill="#F1F1F1" d="M175.942,63.451h7.071v45h-7.071V63.451z"/>
	<path fill="#F1F1F1" d="M193.125,75.857v32.593h-6.364v-45h8.871l7.264,26.936V63.451h6.3v45h-7.265L193.125,75.857z"/>
	<path fill="#F1F1F1" d="M223.831,83.379h9.9V97.65c0,7.2-3.6,11.314-10.543,11.314s-10.543-4.114-10.543-11.314v-23.4
		c0-7.2,3.6-11.314,10.543-11.314S233.73,67.05,233.73,74.25v4.372h-6.686V73.8c0-3.214-1.414-4.436-3.664-4.436
		s-3.664,1.221-3.664,4.436v24.3c0,3.214,1.414,4.372,3.664,4.372s3.664-1.157,3.664-4.372v-8.292h-3.214V83.379z"/>
	<path fill="#F1F1F1" d="M236.929,108.45v-6.814h6.814v6.107l-3.086,7.136h-2.893l1.864-6.429H236.929z"/>
	<path fill="#F1F1F1" d="M0.515,125.451h21.857v6.428h-7.393v38.571H7.908v-38.571H0.515V125.451z"/>
	<path fill="#F1F1F1" d="M24.6,136.25c0-7.2,3.793-11.314,10.736-11.314s10.736,4.114,10.736,11.314v23.4
		c0,7.2-3.793,11.314-10.736,11.314S24.6,166.85,24.6,159.65V136.25z M31.671,160.1c0,3.214,1.414,4.436,3.664,4.436
		S39,163.314,39,160.1v-24.3c0-3.214-1.414-4.436-3.664-4.436s-3.664,1.221-3.664,4.436V160.1z"/>
	<path fill="#F1F1F1" d="M49.148,136.25c0-7.2,3.793-11.314,10.736-11.314S70.62,129.05,70.62,136.25v23.4
		c0,7.2-3.793,11.314-10.736,11.314s-10.736-4.114-10.736-11.314V136.25z M56.22,160.1c0,3.214,1.414,4.436,3.664,4.436
		s3.664-1.222,3.664-4.436v-24.3c0-3.214-1.414-4.436-3.664-4.436s-3.664,1.221-3.664,4.436V160.1z"/>
	<path fill="#F1F1F1" d="M74.095,125.451h7.071v38.571h11.636v6.429H74.095V125.451z"/>
	<path fill="#F1F1F1" d="M105.438,124.936c6.879,0,10.415,4.114,10.415,11.314v1.414h-6.686V135.8c0-3.214-1.286-4.436-3.536-4.436
		s-3.536,1.221-3.536,4.436c0,9.257,13.821,10.993,13.821,23.85c0,7.2-3.6,11.314-10.542,11.314s-10.543-4.114-10.543-11.314v-2.764
		h6.686v3.214c0,3.214,1.415,4.372,3.665,4.372s3.664-1.157,3.664-4.372c0-9.257-13.821-10.993-13.821-23.85
		C95.023,129.05,98.559,124.936,105.438,124.936z"/>
	<path fill="#F1F1F1" d="M152.812,170.45h-7.136l-1.221-8.164h-8.679l-1.221,8.164h-6.493l7.2-45h10.35L152.812,170.45z
		 M136.677,156.179h6.814l-3.407-22.757L136.677,156.179z"/>
	<path fill="#F1F1F1" d="M161.907,137.857v32.593h-6.364v-45h8.871l7.264,26.936v-26.936h6.3v45h-7.265L161.907,137.857z"/>
	<path fill="#F1F1F1" d="M181.78,125.451h11.186c7.072,0,10.543,3.921,10.543,11.121v22.757c0,7.2-3.471,11.122-10.543,11.122
		H181.78V125.451z M188.852,131.879v32.143h3.986c2.25,0,3.6-1.157,3.6-4.371v-23.4c0-3.214-1.35-4.372-3.6-4.372H188.852z"/>
	<path fill="#F1F1F1" d="M224.27,137.857v32.593h-6.364v-45h8.871l7.264,26.936v-26.936h6.3v45h-7.265L224.27,137.857z"/>
	<path fill="#F1F1F1" d="M251.214,144.415h9.708v6.429h-9.708v13.178h12.214v6.429h-19.286v-45h19.286v6.428h-12.214V144.415z"/>
	<path fill="#F1F1F1" d="M283.246,146.472l-2.571,23.979h-9.707l-5.014-45h6.878l3.793,35.485l3.407-35.485h6.814l3.536,35.743
		l3.665-35.743h6.171l-5.014,45h-9.385L283.246,146.472z"/>
	<path fill="#F1F1F1" d="M312.64,124.936c6.878,0,10.414,4.114,10.414,11.314v1.414h-6.686V135.8c0-3.214-1.286-4.436-3.536-4.436
		s-3.535,1.221-3.535,4.436c0,9.257,13.821,10.993,13.821,23.85c0,7.2-3.601,11.314-10.543,11.314
		c-6.943,0-10.543-4.114-10.543-11.314v-2.764h6.686v3.214c0,3.214,1.414,4.372,3.664,4.372s3.665-1.157,3.665-4.372
		c0-9.257-13.821-10.993-13.821-23.85C302.226,129.05,305.761,124.936,312.64,124.936z"/>
	<path fill="#F1F1F1" d="M332.899,163.636v6.814h-6.814v-6.814H332.899z"/>
</g>
</svg>
