<?xml version="1.0" encoding="utf-8"?>
<!-- Generator: Adobe Illustrator 17.0.0, SVG Export Plug-In . SVG Version: 6.00 Build 0)  -->
<!DOCTYPE svg PUBLIC "-//W3C//DTD SVG 1.1//EN" "http://www.w3.org/Graphics/SVG/1.1/DTD/svg11.dtd">
<svg version="1.1" id="Layer_1" xmlns="http://www.w3.org/2000/svg" xmlns:xlink="http://www.w3.org/1999/xlink" x="0px" y="0px"
	 width="344.347px" height="413.094px" viewBox="0 0 344.347 413.094" enable-background="new 0 0 344.347 413.094"
	 xml:space="preserve">
<path fill="#29A0E2" d="M83.067,181.69l-2.374,2.374l-3.918-3.918l2.374-2.374l-25.724-25.724L2.807,202.665l25.724,25.724
	l2.151-2.151l3.918,3.918l-2.151,2.151l4.861,4.861l50.617-50.617L83.067,181.69z M51.455,213.301l-4.475,4.475l-3.918-3.918
	l4.475-4.475L51.455,213.301L51.455,213.301z M68.312,196.444l-4.475,4.475l-3.918-3.918l4.475-4.475L68.312,196.444z"/>
<g>
	<path fill="#29A0E2" d="M100.097,191.053c6.97,0,10.552,4.169,10.552,11.464v1.433h-6.774v-1.889c0-3.257-1.302-4.495-3.582-4.495
		s-3.582,1.238-3.582,4.495c0,9.379,14.003,11.138,14.003,24.165c0,7.296-3.647,11.464-10.682,11.464
		c-7.034,0-10.682-4.169-10.682-11.464v-2.801h6.774v3.257c0,3.257,1.433,4.429,3.712,4.429s3.712-1.173,3.712-4.429
		c0-9.379-14.003-11.138-14.003-24.165C89.545,195.222,93.127,191.053,100.097,191.053z"/>
	<path fill="#29A0E2" d="M120.833,191.575v35.172c0,3.257,1.434,4.429,3.714,4.429s3.712-1.173,3.712-4.429v-35.172h6.774v34.716
		c0,7.295-3.648,11.464-10.682,11.464c-7.035,0-10.682-4.169-10.682-11.464v-34.716H120.833z"/>
	<path fill="#29A0E2" d="M159.919,202.843v5.927c0,7.295-3.518,11.268-10.682,11.268h-3.387v17.13h-7.164v-45.593h10.552
		C156.401,191.575,159.919,195.548,159.919,202.843z M145.849,198.088v15.437h3.387c2.28,0,3.517-1.042,3.517-4.299v-6.84
		c0-3.257-1.237-4.298-3.517-4.298C149.237,198.088,145.849,198.088,145.849,198.088z"/>
	<path fill="#29A0E2" d="M169.83,210.789h9.836v6.513h-9.836v13.352h12.376v6.513h-19.54v-45.593h19.54v6.513H169.83L169.83,210.789
		L169.83,210.789z"/>
	<path fill="#29A0E2" d="M200.435,237.169c-0.391-1.173-0.651-1.889-0.651-5.602v-7.165c0-4.234-1.433-5.797-4.69-5.797h-2.475
		v18.563h-7.164v-45.593h10.812c7.425,0,10.616,3.452,10.616,10.487v3.582c0,4.69-1.498,7.751-4.689,9.249
		c3.582,1.498,4.754,4.951,4.754,9.705v7.034c0,2.215,0.065,3.843,0.782,5.537C207.73,237.169,200.435,237.169,200.435,237.169z
		 M192.618,198.088v14.003h2.801c2.671,0,4.299-1.173,4.299-4.82v-4.495c0-3.257-1.108-4.689-3.647-4.689L192.618,198.088
		L192.618,198.088z"/>
	<path fill="#29A0E2" d="M229.415,237.69c-7.231,0-11.203-4.169-11.203-11.464v-3.582c0-4.364,1.304-7.751,4.43-9.51
		c-2.996-1.628-4.43-4.689-4.43-9.184v-1.433c0-7.295,3.973-11.464,11.203-11.464c7.229,0,11.203,4.169,11.203,11.464v1.433
		c0,4.495-1.498,7.555-4.428,9.184c3.126,1.759,4.428,5.145,4.428,9.51v3.582C240.618,233.521,236.645,237.69,229.415,237.69z
		 M225.378,205.318c0,3.647,1.693,4.82,4.038,4.82c2.28,0,4.038-1.173,4.038-4.82v-2.54c0-4.103-1.759-5.211-4.038-5.211
		s-4.038,1.107-4.038,5.211V205.318z M229.415,231.176c2.28,0,3.973-1.107,4.038-5.145v-4.234c0-3.583-1.498-5.145-4.038-5.145
		c-2.54,0-4.038,1.563-4.038,5.145v4.234C225.378,230.069,227.136,231.176,229.415,231.176z"/>
	<path fill="#29A0E2" d="M272.531,202.061v1.628c0,4.69-1.433,7.686-4.624,9.184c3.843,1.498,5.341,4.951,5.341,9.77v3.712
		c0,7.035-3.712,10.812-10.878,10.812h-11.268v-45.593h10.812C269.34,191.575,272.531,195.026,272.531,202.061z M258.267,198.088
		v12.049h2.801c2.671,0,4.299-1.173,4.299-4.82v-2.54c0-3.257-1.108-4.689-3.647-4.689
		C261.72,198.088,258.267,198.088,258.267,198.088z M258.267,216.651v14.003h4.103c2.41,0,3.714-1.107,3.714-4.494v-3.973
		c0-4.234-1.369-5.536-4.625-5.536C261.459,216.651,258.267,216.651,258.267,216.651z"/>
	<path fill="#29A0E2" d="M276.437,191.575h7.164v39.08h11.79v6.513h-18.954V191.575L276.437,191.575z"/>
	<path fill="#29A0E2" d="M297.06,202.517c0-7.295,3.843-11.464,10.878-11.464c7.034,0,10.878,4.169,10.878,11.464v23.709
		c0,7.296-3.844,11.464-10.878,11.464c-7.035,0-10.878-4.169-10.878-11.464V202.517z M304.225,226.682
		c0,3.257,1.433,4.495,3.712,4.495s3.712-1.238,3.712-4.495v-24.621c0-3.257-1.433-4.495-3.712-4.495s-3.712,1.238-3.712,4.495
		V226.682z"/>
	<path fill="#29A0E2" d="M333.796,211.766h10.031v14.46c0,7.296-3.647,11.464-10.682,11.464c-7.035,0-10.682-4.169-10.682-11.464
		v-23.708c0-7.295,3.647-11.464,10.682-11.464c7.035,0,10.682,4.169,10.682,11.464v4.43h-6.774v-4.885
		c0-3.257-1.433-4.495-3.712-4.495s-3.712,1.238-3.712,4.495v24.62c0,3.257,1.433,4.429,3.712,4.429s3.712-1.173,3.712-4.429v-8.402
		h-3.256V211.766z"/>
</g>
<g>
	<path fill="#F1F1F1" d="M23.207,253.93v1.607c0,4.628-1.414,7.585-4.564,9.064c3.792,1.479,5.271,4.886,5.271,9.643v3.664
		c0,6.943-3.664,10.671-10.735,10.671H2.057v-45h10.671C20.057,243.581,23.207,246.987,23.207,253.93z M9.128,250.009v11.893h2.765
		c2.636,0,4.243-1.157,4.243-4.757v-2.507c0-3.214-1.093-4.629-3.6-4.629C12.536,250.009,9.128,250.009,9.128,250.009z
		 M9.128,268.33v13.821h4.05c2.378,0,3.664-1.093,3.664-4.436v-3.921c0-4.179-1.35-5.464-4.564-5.464
		C12.278,268.33,9.128,268.33,9.128,268.33z"/>
	<path fill="#F1F1F1" d="M27.112,243.581h7.071v38.571h11.636v6.429H27.112V243.581z"/>
	<path fill="#F1F1F1" d="M48.08,254.38c0-7.2,3.793-11.314,10.736-11.314s10.735,4.114,10.735,11.314v23.4
		c0,7.2-3.793,11.314-10.736,11.314S48.08,284.98,48.08,277.78V254.38z M55.152,278.23c0,3.214,1.414,4.436,3.664,4.436
		s3.664-1.222,3.664-4.436v-24.3c0-3.214-1.414-4.436-3.664-4.436s-3.664,1.221-3.664,4.436V278.23z"/>
	<path fill="#F1F1F1" d="M83.814,263.509h9.9v14.271c0,7.2-3.6,11.314-10.543,11.314s-10.543-4.114-10.543-11.314v-23.4
		c0-7.2,3.6-11.314,10.543-11.314s10.543,4.114,10.543,11.314v4.372h-6.686v-4.822c0-3.214-1.414-4.436-3.664-4.436
		s-3.664,1.221-3.664,4.436v24.3c0,3.214,1.414,4.372,3.664,4.372s3.664-1.157,3.664-4.372v-8.292h-3.214V263.509z"/>
	<path fill="#F1F1F1" d="M107.977,263.509h9.9v14.271c0,7.2-3.6,11.314-10.543,11.314s-10.543-4.114-10.543-11.314v-23.4
		c0-7.2,3.6-11.314,10.543-11.314s10.543,4.114,10.543,11.314v4.372h-6.686v-4.822c0-3.214-1.414-4.436-3.664-4.436
		s-3.664,1.221-3.664,4.436v24.3c0,3.214,1.414,4.372,3.664,4.372s3.664-1.157,3.664-4.372v-8.292h-3.214
		C107.977,269.938,107.977,263.509,107.977,263.509z"/>
	<path fill="#F1F1F1" d="M121.32,243.581h7.071v45h-7.071C121.32,288.581,121.32,243.581,121.32,243.581z"/>
	<path fill="#F1F1F1" d="M138.502,255.987v32.593h-6.364v-45h8.871l7.264,26.936v-26.935h6.3v45h-7.265L138.502,255.987z"/>
	<path fill="#F1F1F1" d="M169.208,263.509h9.9v14.271c0,7.2-3.6,11.314-10.543,11.314s-10.543-4.114-10.543-11.314v-23.4
		c0-7.2,3.6-11.314,10.543-11.314s10.543,4.114,10.543,11.314v4.372h-6.686v-4.822c0-3.214-1.414-4.436-3.664-4.436
		s-3.664,1.221-3.664,4.436v24.3c0,3.214,1.414,4.372,3.664,4.372s3.664-1.157,3.664-4.372v-8.292h-3.214L169.208,263.509
		L169.208,263.509z"/>
	<path fill="#F1F1F1" d="M203.147,243.066c6.879,0,10.415,4.114,10.415,11.314v1.414h-6.686v-1.864c0-3.214-1.286-4.436-3.536-4.436
		s-3.536,1.221-3.536,4.436c0,9.257,13.821,10.993,13.821,23.85c0,7.2-3.6,11.314-10.542,11.314s-10.543-4.114-10.543-11.314v-2.764
		h6.686v3.214c0,3.214,1.415,4.372,3.665,4.372s3.664-1.157,3.664-4.372c0-9.257-13.821-10.993-13.821-23.85
		C192.733,247.18,196.269,243.066,203.147,243.066z"/>
	<path fill="#F1F1F1" d="M223.658,243.581v34.714c0,3.214,1.415,4.372,3.665,4.372s3.664-1.157,3.664-4.372v-34.714h6.686v34.264
		c0,7.2-3.6,11.314-10.542,11.314c-6.943,0-10.543-4.114-10.543-11.314v-34.264H223.658z"/>
	<path fill="#F1F1F1" d="M262.285,254.702v5.85c0,7.2-3.471,11.121-10.542,11.121H248.4v16.907h-7.071v-45h10.415
		C258.814,243.581,262.285,247.502,262.285,254.702z M248.399,250.009v15.236h3.343c2.25,0,3.471-1.029,3.471-4.243v-6.75
		c0-3.214-1.221-4.243-3.471-4.243C251.742,250.009,248.399,250.009,248.399,250.009z"/>
	<path fill="#F1F1F1" d="M272.112,262.545h9.708v6.429h-9.708v13.178h12.214v6.429H265.04v-45h19.286v6.428h-12.214V262.545z"/>
	<path fill="#F1F1F1" d="M302.369,288.58c-0.386-1.157-0.643-1.864-0.643-5.528v-7.072c0-4.178-1.414-5.721-4.629-5.721h-2.443
		v18.321h-7.071v-45h10.671c7.328,0,10.479,3.407,10.479,10.35v3.536c0,4.629-1.479,7.65-4.629,9.129
		c3.536,1.479,4.693,4.885,4.693,9.578v6.943c0,2.186,0.064,3.793,0.771,5.464H302.369z M294.654,250.009v13.821h2.765
		c2.635,0,4.243-1.157,4.243-4.757v-4.436c0-3.214-1.093-4.629-3.6-4.629L294.654,250.009L294.654,250.009z"/>
	<path fill="#F1F1F1" d="M333.544,289.094c-7.136,0-11.057-4.114-11.057-11.314v-3.536c0-4.307,1.285-7.65,4.371-9.386
		c-2.957-1.607-4.371-4.628-4.371-9.064v-1.414c0-7.2,3.921-11.314,11.057-11.314s11.057,4.114,11.057,11.314v1.414
		c0,4.436-1.479,7.457-4.371,9.064c3.086,1.736,4.371,5.079,4.371,9.386v3.536C344.6,284.98,340.679,289.094,333.544,289.094z
		 M329.558,257.145c0,3.6,1.671,4.757,3.985,4.757c2.25,0,3.985-1.157,3.985-4.757v-2.507c0-4.05-1.735-5.143-3.985-5.143
		s-3.985,1.093-3.985,5.143V257.145z M333.544,282.666c2.25,0,3.921-1.093,3.985-5.079v-4.179c0-3.536-1.479-5.079-3.985-5.079
		s-3.985,1.543-3.985,5.079v4.179C329.558,281.573,331.294,282.666,333.544,282.666z"/>
	<path fill="#F1F1F1" d="M9.128,325.573h9.129v6.428H9.128v18.579H2.057v-45h18.707v6.428H9.128V325.573z"/>
	<path fill="#F1F1F1" d="M23.577,305.581h7.071v45h-7.071V305.581z"/>
	<path fill="#F1F1F1" d="M34.427,305.581h7.071v38.571h11.636v6.429H34.427V305.581z"/>
	<path fill="#F1F1F1" d="M70.817,337.53l4.821-31.95h9.836v45h-6.686v-32.271l-4.886,32.271h-6.686l-5.271-31.821v31.821h-6.171v-45
		h9.835L70.817,337.53z"/>
	<path fill="#F1F1F1" d="M104.35,337.53l4.821-31.95h9.836v45h-6.686v-32.271l-4.886,32.271h-6.686l-5.271-31.821v31.821h-6.171v-45
		h9.835L104.35,337.53z"/>
	<path fill="#F1F1F1" d="M146.549,350.58h-7.136l-1.221-8.164h-8.679l-1.221,8.164h-6.493l7.2-45h10.35L146.549,350.58z
		 M130.414,336.309h6.814l-3.407-22.757L130.414,336.309z"/>
	<path fill="#F1F1F1" d="M158.562,332.645l-2.186,4.114v13.821h-7.071v-45h7.071v19.607l9.257-19.607h7.071l-9.835,20.057
		l9.835,24.943h-7.264L158.562,332.645z"/>
	<path fill="#F1F1F1" d="M175.427,305.581h7.071v45h-7.071V305.581z"/>
	<path fill="#F1F1F1" d="M192.61,317.987v32.593h-6.364v-45h8.871l7.264,26.936v-26.935h6.3v45h-7.265L192.61,317.987z"/>
	<path fill="#F1F1F1" d="M223.316,325.509h9.9v14.271c0,7.2-3.6,11.314-10.543,11.314s-10.543-4.114-10.543-11.314v-23.4
		c0-7.2,3.6-11.314,10.543-11.314s10.542,4.114,10.542,11.314v4.372h-6.686v-4.822c0-3.214-1.414-4.436-3.664-4.436
		s-3.664,1.221-3.664,4.436v24.3c0,3.214,1.414,4.372,3.664,4.372s3.664-1.157,3.664-4.372v-8.292h-3.214v-6.429H223.316z"/>
	<path fill="#F1F1F1" d="M236.414,350.58v-6.814h6.814v6.107l-3.086,7.136h-2.893l1.864-6.429H236.414z"/>
	<path fill="#F1F1F1" d="M0,367.581h21.857v6.428h-7.393v38.571H7.393v-38.571H0V367.581z"/>
	<path fill="#F1F1F1" d="M24.085,378.38c0-7.2,3.793-11.314,10.736-11.314s10.736,4.114,10.736,11.314v23.4
		c0,7.2-3.793,11.314-10.736,11.314s-10.736-4.114-10.736-11.314V378.38z M31.156,402.23c0,3.214,1.414,4.436,3.664,4.436
		s3.665-1.222,3.665-4.436v-24.3c0-3.214-1.414-4.436-3.664-4.436s-3.664,1.221-3.664,4.436L31.156,402.23L31.156,402.23z"/>
	<path fill="#F1F1F1" d="M48.633,378.38c0-7.2,3.793-11.314,10.736-11.314s10.736,4.114,10.736,11.314v23.4
		c0,7.2-3.793,11.314-10.736,11.314s-10.736-4.114-10.736-11.314C48.633,401.78,48.633,378.38,48.633,378.38z M55.705,402.23
		c0,3.214,1.414,4.436,3.664,4.436s3.664-1.222,3.664-4.436v-24.3c0-3.214-1.414-4.436-3.664-4.436s-3.664,1.221-3.664,4.436V402.23
		z"/>
	<path fill="#F1F1F1" d="M73.58,367.581h7.071v38.571h11.636v6.429H73.58V367.581z"/>
	<path fill="#F1F1F1" d="M104.923,367.066c6.879,0,10.415,4.114,10.415,11.314v1.414h-6.686v-1.864c0-3.214-1.286-4.436-3.536-4.436
		s-3.536,1.221-3.536,4.436c0,9.257,13.821,10.993,13.821,23.85c0,7.2-3.6,11.314-10.542,11.314s-10.543-4.114-10.543-11.314v-2.764
		h6.686v3.214c0,3.214,1.415,4.372,3.665,4.372s3.664-1.157,3.664-4.372c0-9.257-13.821-10.993-13.821-23.85
		C94.508,371.18,98.044,367.066,104.923,367.066z"/>
	<path fill="#F1F1F1" d="M152.297,412.58h-7.136l-1.221-8.164h-8.679l-1.221,8.164h-6.493l7.2-45h10.35L152.297,412.58z
		 M136.162,398.309h6.814l-3.407-22.757L136.162,398.309z"/>
	<path fill="#F1F1F1" d="M161.392,379.987v32.593h-6.364v-45h8.871l7.264,26.936V367.58h6.3v45h-7.265L161.392,379.987z"/>
	<path fill="#F1F1F1" d="M181.265,367.581h11.186c7.072,0,10.543,3.921,10.543,11.121v22.757c0,7.2-3.471,11.122-10.543,11.122
		h-11.186V367.581z M188.337,374.009v32.143h3.986c2.25,0,3.6-1.157,3.6-4.371v-23.4c0-3.214-1.35-4.372-3.6-4.372L188.337,374.009
		L188.337,374.009z"/>
	<path fill="#F1F1F1" d="M223.755,379.987v32.593h-6.364v-45h8.871l7.264,26.936V367.58h6.3v45h-7.265L223.755,379.987z"/>
	<path fill="#F1F1F1" d="M250.699,386.545h9.708v6.429h-9.708v13.178h12.214v6.429h-19.286v-45h19.286v6.428h-12.214
		L250.699,386.545L250.699,386.545z"/>
	<path fill="#F1F1F1" d="M282.731,388.602l-2.571,23.979h-9.707l-5.014-45h6.878l3.793,35.485l3.407-35.485h6.814l3.536,35.743
		l3.665-35.743h6.171l-5.014,45h-9.385L282.731,388.602z"/>
	<path fill="#F1F1F1" d="M312.125,367.066c6.878,0,10.414,4.114,10.414,11.314v1.414h-6.686v-1.864c0-3.214-1.286-4.436-3.536-4.436
		s-3.535,1.221-3.535,4.436c0,9.257,13.821,10.993,13.821,23.85c0,7.2-3.601,11.314-10.543,11.314
		c-6.943,0-10.543-4.114-10.543-11.314v-2.764h6.686v3.214c0,3.214,1.414,4.372,3.664,4.372s3.665-1.157,3.665-4.372
		c0-9.257-13.821-10.993-13.821-23.85C301.711,371.18,305.246,367.066,312.125,367.066z"/>
	<path fill="#F1F1F1" d="M332.384,405.766v6.814h-6.814v-6.814H332.384z"/>
</g>
</svg>
