<?xml version="1.0" encoding="utf-8"?>
<!-- Generator: Adobe Illustrator 17.0.0, SVG Export Plug-In . SVG Version: 6.00 Build 0)  -->
<!DOCTYPE svg PUBLIC "-//W3C//DTD SVG 1.1//EN" "http://www.w3.org/Graphics/SVG/1.1/DTD/svg11.dtd">
<svg version="1.1" id="Layer_1" xmlns="http://www.w3.org/2000/svg" xmlns:xlink="http://www.w3.org/1999/xlink" x="0px" y="0px"
	 width="136px" height="141.546px" viewBox="28.036 0 136 141.546" enable-background="new 28.036 0 136 141.546"
	 xml:space="preserve">
<path fill="#54ABED" d="M159.461,31.553c-4.653,2.063-9.653,3.458-14.901,4.085c5.357-3.211,9.471-8.295,11.408-14.354
	c-5.013,2.973-10.565,5.132-16.475,6.296c-4.733-5.043-11.476-8.193-18.938-8.193c-14.329,0-25.946,11.617-25.946,25.944
	c0,2.034,0.229,4.014,0.672,5.913C73.717,50.162,54.6,39.833,41.804,24.136c-2.233,3.832-3.513,8.289-3.513,13.044
	c0,9.001,4.58,16.942,11.542,21.595c-4.253-0.135-8.253-1.302-11.752-3.245c-0.002,0.108-0.002,0.217-0.002,0.326
	c0,12.571,8.943,23.057,20.812,25.44c-2.177,0.593-4.469,0.91-6.835,0.91c-1.672,0-3.297-0.163-4.881-0.465
	c3.302,10.307,12.883,17.809,24.236,18.018c-8.88,6.958-20.066,11.106-32.222,11.106c-2.094,0-4.159-0.123-6.189-0.362
	c11.482,7.361,25.119,11.656,39.771,11.656c47.722,0,73.818-39.534,73.818-73.819c0-1.125-0.025-2.244-0.075-3.356
	C151.583,41.325,155.982,36.756,159.461,31.553z"/>
</svg>
